<!-- Generator: Adobe Illustrator 17.0.0, SVG Export Plug-In  -->
<svg version="1.1"
	 xmlns="http://www.w3.org/2000/svg" xmlns:xlink="http://www.w3.org/1999/xlink" xmlns:a="http://ns.adobe.com/AdobeSVGViewerExtensions/3.0/"
	 x="0px" y="0px" width="336.732px" height="73.208px" viewBox="0 0 336.732 73.208" enable-background="new 0 0 336.732 73.208"
	 xml:space="preserve">
<defs>
</defs>
<g>
	<path fill="#002857" d="M92.5,5.424h14.949c12.467,0,20.816,8.349,20.816,19.744s-8.349,19.744-20.816,19.744H92.5V5.424z
		 M107.336,43.84c12.072,0,19.801-7.897,19.801-18.672c0-10.774-7.729-18.672-19.801-18.672H93.628V43.84H107.336z"/>
	<path fill="#002857" d="M137.171,6.214c0-0.79,0.677-1.467,1.466-1.467c0.79,0,1.467,0.677,1.467,1.467
		c0,0.79-0.677,1.466-1.467,1.466C137.848,7.68,137.171,7.003,137.171,6.214z M138.074,15.747h1.128v29.165h-1.128V15.747z"/>
	<path fill="#002857" d="M164.755,15.578v1.128h-0.339c-6.995,0-11.113,4.795-11.113,12.523v15.683h-1.128V15.747h1.128v7.56
		C154.939,18.398,158.888,15.578,164.755,15.578z"/>
	<path fill="#002857" d="M194.086,39.497l0.79,0.79c-2.595,3.159-6.544,4.795-10.775,4.795c-8.405,0-14.61-6.149-14.61-14.78
		c0-8.631,5.754-14.723,13.877-14.723c7.56,0,12.693,5.979,13.201,13.031l-25.611,5.021c1.354,6.262,6.431,10.379,13.144,10.379
		C188.05,44.009,191.774,42.543,194.086,39.497z M170.563,30.132c0,0.846,0.056,1.692,0.169,2.482l24.652-4.851
		c-0.677-5.811-5.19-11.113-12.016-11.113C175.865,16.65,170.563,22.404,170.563,30.132z"/>
	<path fill="#002857" d="M202.656,30.301c0-8.687,6.036-14.723,14.329-14.723c4.174,0,8.01,1.58,10.492,4.738l-0.79,0.846
		c-2.256-3.046-5.811-4.513-9.703-4.513c-7.616,0-13.201,5.584-13.201,13.651c0,8.124,5.585,13.708,13.201,13.708
		c3.892,0,7.446-1.466,9.703-4.513l0.79,0.846c-2.482,3.159-6.318,4.739-10.492,4.739C208.692,45.082,202.656,38.989,202.656,30.301
		z"/>
	<path fill="#002857" d="M248.684,42.994c-1.354,1.41-3.61,2.087-5.698,2.087c-4.625,0-7.051-2.877-7.051-7.165V9.373h1.128v6.375
		h9.872v1.072h-9.872v20.816c0,4.118,2.031,6.375,5.979,6.375c1.861,0,3.61-0.62,4.852-1.805L248.684,42.994z"/>
	<path fill="#002857" d="M252.8,30.301c0-8.631,6.036-14.723,14.16-14.723c8.123,0,14.159,6.092,14.159,14.723
		c0,8.631-6.036,14.78-14.159,14.78C258.837,45.082,252.8,38.933,252.8,30.301z M279.991,30.301c0-8.067-5.584-13.651-13.03-13.651
		c-7.447,0-13.031,5.584-13.031,13.651s5.584,13.708,13.031,13.708C274.407,44.009,279.991,38.368,279.991,30.301z"/>
	<path fill="#002857" d="M303.227,15.578v1.128h-0.339c-6.995,0-11.113,4.795-11.113,12.523v15.683h-1.128V15.747h1.128v7.56
		C293.412,18.398,297.36,15.578,303.227,15.578z"/>
	<path fill="#002857" d="M336.732,15.747v26.57c0,9.42-4.005,13.708-12.128,13.708c-4.852,0-9.364-1.805-11.79-4.852l0.789-0.79
		c2.596,2.933,6.487,4.569,10.944,4.569c7.56,0,11.057-3.836,11.057-12.467v-6.431c-1.692,4.851-5.811,7.897-11.733,7.897
		c-7.391,0-11.96-4.231-11.96-12.128V15.747h1.129v16.078c0,7.221,3.948,11.057,10.774,11.057c7.334,0,11.79-5.021,11.79-12.411
		V15.747H336.732z"/>
</g>
<g>
	<path fill="#80BD01" d="M106.635,67.319l-0.296,2.255c-0.547,0.205-1.162,0.296-1.777,0.296c-1.641,0-2.711-0.752-3.076-1.937
		c-1.071,1.23-2.597,1.937-4.465,1.937c-2.984,0-5.354-1.982-5.354-5.354c0-4.146,2.962-7.107,6.857-7.107
		c1.891,0,3.326,0.638,4.146,1.936l0.342-1.799h2.848l-1.64,8.178c-0.045,0.182-0.068,0.365-0.068,0.524
		c0,0.843,0.524,1.276,1.413,1.276C105.975,67.524,106.362,67.433,106.635,67.319z M101.942,62.876c0-1.891-1.162-3.053-3.212-3.053
		c-2.415,0-4.192,1.868-4.192,4.556c0,1.891,1.162,3.053,3.212,3.053C100.166,67.433,101.942,65.565,101.942,62.876z"/>
	<path fill="#80BD01" d="M119.889,56.976l-0.137,0.661h3.326l-0.456,2.278h-3.28l-1.937,9.796h-2.848l2.597-12.94
		c0.501-2.551,2.142-4.124,4.875-4.124c1.048,0,2.028,0.251,2.666,0.729l-1.139,2.073c-0.41-0.319-0.911-0.501-1.526-0.501
		C120.846,54.949,120.208,55.609,119.889,56.976z"/>
	<path fill="#80BD01" d="M133.92,57.409l-0.524,2.711c-0.251-0.046-0.433-0.068-0.707-0.068c-2.232,0-3.713,1.139-4.214,3.667
		l-1.208,5.992h-2.848l2.415-12.165h2.711l-0.319,1.572C130.343,57.842,131.87,57.409,133.92,57.409z"/>
	<path fill="#80BD01" d="M133.873,64.517c0-4.078,3.007-7.107,7.222-7.107c3.6,0,5.923,2.096,5.923,5.331
		c0,4.078-3.03,7.131-7.245,7.131C136.196,69.871,133.873,67.729,133.873,64.517z M144.147,62.876c0-1.891-1.162-3.053-3.212-3.053
		c-2.415,0-4.192,1.868-4.192,4.556c0,1.891,1.162,3.053,3.212,3.053C142.37,67.433,144.147,65.565,144.147,62.876z"/>
	<path fill="#80BD01" d="M161.936,61.51c0,0.456-0.068,0.934-0.16,1.458l-1.344,6.743h-2.848l1.321-6.675
		c0.068-0.342,0.091-0.661,0.091-0.934c0-1.413-0.774-2.21-2.438-2.21c-2.073,0-3.508,1.139-3.987,3.508l-1.276,6.311h-2.848
		l2.415-12.165h2.711l-0.273,1.344c1.116-1.002,2.574-1.48,4.192-1.48C160.182,57.409,161.936,58.844,161.936,61.51z"/>
	<path fill="#80BD01" d="M167.605,65.633c-0.022,0.182-0.045,0.364-0.045,0.524c0,0.843,0.433,1.367,1.413,1.367
		c0.547,0,1.116-0.16,1.595-0.479l0.501,2.096c-0.866,0.546-1.914,0.729-2.939,0.729c-2.027,0-3.462-1.208-3.462-3.235
		c0-0.296,0.022-0.638,0.091-0.979l2.165-10.798h2.848l-0.57,2.779h3.258l-0.456,2.278h-3.258L167.605,65.633z"/>
	<path fill="#80BD01" d="M183.07,65.633c-0.022,0.182-0.045,0.364-0.045,0.524c0,0.843,0.433,1.367,1.413,1.367
		c0.547,0,1.116-0.16,1.595-0.479l0.501,2.096c-0.866,0.546-1.914,0.729-2.938,0.729c-2.028,0-3.463-1.208-3.463-3.235
		c0-0.296,0.022-0.638,0.091-0.979l2.165-10.798h2.848l-0.57,2.779h3.258l-0.456,2.278h-3.258L183.07,65.633z"/>
	<path fill="#80BD01" d="M201.021,62.899c0,0.205,0,0.41-0.023,0.615l-9.728,1.777c0.319,1.412,1.413,2.164,3.417,2.164
		c1.39,0,2.666-0.433,3.508-1.253l1.185,1.982c-1.276,1.139-3.099,1.686-4.966,1.686c-3.691,0-6.015-2.119-6.015-5.354
		c0-4.055,2.871-7.107,6.994-7.107C198.674,57.409,201.021,59.254,201.021,62.899z M191.247,63.4l7.131-1.321
		c-0.183-1.549-1.39-2.392-3.099-2.392C193.07,59.687,191.589,61.145,191.247,63.4z"/>
	<path fill="#80BD01" d="M201.291,68.549l1.185-2.187c0.979,0.706,2.62,1.185,4.237,1.185c1.868,0,2.756-0.547,2.756-1.458
		c0-2.005-6.583-0.456-6.583-4.579c0-2.552,2.324-4.101,5.786-4.101c1.641,0,3.349,0.387,4.374,1.048l-1.048,2.187
		c-1.071-0.684-2.415-0.934-3.599-0.934c-1.846,0-2.734,0.638-2.734,1.481c0,2.096,6.583,0.524,6.583,4.579
		c0,2.666-2.415,4.101-5.832,4.101C204.298,69.871,202.294,69.301,201.291,68.549z"/>
	<path fill="#80BD01" d="M217.554,65.633c-0.022,0.182-0.045,0.364-0.045,0.524c0,0.843,0.433,1.367,1.413,1.367
		c0.547,0,1.116-0.16,1.595-0.479l0.501,2.096c-0.866,0.546-1.914,0.729-2.939,0.729c-2.027,0-3.462-1.208-3.462-3.235
		c0-0.296,0.022-0.638,0.091-0.979l2.165-10.798h2.848l-0.57,2.779h3.258l-0.456,2.278h-3.258L217.554,65.633z"/>
</g>
<g>
	<g>
		<path fill="#666666" d="M23.337,37.977c0-15.395,7.447-29.04,18.937-37.545C40.427,0.151,38.533,0,36.604,0
			C16.384,0,0,16.384,0,36.604c0,20.22,16.384,36.604,36.604,36.604c0.899,0,1.798-0.034,2.677-0.103
			C29.507,64.56,23.337,51.993,23.337,37.977z"/>
		<path fill="#999999" d="M46.392,0.432c-11.49,8.504-18.937,22.149-18.937,37.545c0,14.016,6.17,26.583,15.944,35.129
			c18.971-1.366,33.927-17.18,33.927-36.501C77.327,18.312,63.922,3.164,46.392,0.432z"/>
	</g>
	<g>
		<path fill="#FFFFFF" d="M36.587,20.195h14.346c10.642,0,17.909,6.563,17.909,16.409s-7.267,16.409-17.909,16.409H36.587V20.195z
			 M50.651,47.856c7.313,0,12.048-4.454,12.048-11.252s-4.735-11.252-12.048-11.252h-7.97v22.504H50.651z"/>
	</g>
</g>
</svg>